<?xml version="1.0" encoding="UTF-8" standalone="no"?>
<svg
   xmlns:dc="http://purl.org/dc/elements/1.1/"
   xmlns:cc="http://creativecommons.org/ns#"
   xmlns:rdf="http://www.w3.org/1999/02/22-rdf-syntax-ns#"
   xmlns:svg="http://www.w3.org/2000/svg"
   xmlns="http://www.w3.org/2000/svg"
   xmlns:sodipodi="http://sodipodi.sourceforge.net/DTD/sodipodi-0.dtd"
   xmlns:inkscape="http://www.inkscape.org/namespaces/inkscape"
   version="1.2"
   width="474.293"
   height="634.923"
   viewBox="0 0 12549 16799.001"
   preserveAspectRatio="xMidYMid"
   fill-rule="evenodd"
   stroke-width="28.222"
   stroke-linejoin="round"
   id="svg678"
   sodipodi:docname="estabilidad.svg"
   inkscape:version="0.92.3 (2405546, 2018-03-11)">
  <metadata
     id="metadata684">
    <rdf:RDF>
      <cc:Work
         rdf:about="">
        <dc:format>image/svg+xml</dc:format>
        <dc:type
           rdf:resource="http://purl.org/dc/dcmitype/StillImage" />
      </cc:Work>
    </rdf:RDF>
  </metadata>
  <defs
     id="defs682" />
  <sodipodi:namedview
     pagecolor="#ffffff"
     bordercolor="#666666"
     borderopacity="1"
     objecttolerance="10"
     gridtolerance="10"
     guidetolerance="10"
     inkscape:pageopacity="0"
     inkscape:pageshadow="2"
     inkscape:window-width="860"
     inkscape:window-height="843"
     id="namedview680"
     showgrid="false"
     inkscape:snap-text-baseline="false"
     inkscape:zoom="1.0513225"
     inkscape:cx="209.05036"
     inkscape:cy="313.5301"
     inkscape:window-x="0"
     inkscape:window-y="27"
     inkscape:window-maximized="0"
     inkscape:current-layer="svg678" />
  <path
     class="BoundingBox"
     fill="none"
     d="M694 11921h10873v52H694z"
     id="path2" />
  <path
     d="M11566 11947v-26H694v51h10872z"
     id="path4" />
  <path
     class="BoundingBox"
     fill="none"
     d="M11387 11794h358v306h-358z"
     id="path6" />
  <path
     d="M11744 11947l-357-153 9 17 8 25 9 18v34l8 25v68l-8 17v42l-17 34-9 25z"
     id="path8" />
  <path
     class="BoundingBox"
     fill="none"
     d="M881 9042h542v305H881zM9753 9668h1695v63H9753z"
     id="path10" />
  <path
     d="M11447 9668h-499l-51 10h-745l-60 8h-339v44h339l60-10h567l43-8h685z"
     id="path12" />
  <path
     class="BoundingBox"
     fill="none"
     d="M8034 9668h1713v70H8034z"
     id="path14" />
  <path
     d="M9746 9668h-364l-51 9h-373l-51 8h-245l-59 9h-569v43h458l59-8h314l42-9h331l42-8h466z"
     id="path16" />
  <path
     class="BoundingBox"
     fill="none"
     d="M6290 9685h1763v53H6290z"
     id="path18" />
  <path
     d="M8052 9695h-762l-50-10h-950v44h1144l51 8h567z"
     id="path20" />
  <path
     class="BoundingBox"
     fill="none"
     d="M4597 9668h1695v129H4597z"
     id="path22" />
  <path
     d="M6291 9668h-211l-51 9h-102l-42 8h-51l-51 9h-42l-42 8h-94l-50 9h-43l-50 8h-43l-51 9h-50l-51 8h-102l-59 9h-51l-60 8h-398v43h271l68-8h59l60-8h110l51-9h51l51-9h50l51-9h93l43-8h50l43-9h51l42-8h93l51-9h42l51-8h313z"
     id="path24" />
  <path
     class="BoundingBox"
     fill="none"
     d="M2953 9525h1637v272H2953z"
     id="path26" />
  <path
     d="M4589 9753h-110l-110-8-93-9-84-17-94-17-84-17-85-25-93-17-85-17-93-25-203-34-110-17-254-17-137-8v42h137l254 17 305 51 93 25 93 17 85 25 169 34 186 35 93 9 220 16z"
     id="path28" />
  <path
     class="BoundingBox"
     fill="none"
     d="M1219 9525h1720v2660H1219z"
     id="path30" />
  <path
     d="M2938 9525l-118 16-59 17-68 26-59 34-68 42-59 42-68 51-68 59-127 127-59 69-68 76-118 170-119 186-179 305-152 330-51 118-127 356-34 127-34 119-33 135-26 119-25 127 34 8 50-254 34-118 34-127 42-119 34-127 43-119 50-118 43-110 152-330 60-102 51-102 60-101 59-93 118-170 68-84 59-76 60-69 127-127 67-59 60-43 67-51 60-33 177-77 51-8h59z"
     id="path32" />
  <path
     class="BoundingBox"
     fill="none"
     d="M770 9694h307v28H770z"
     id="path34" />
  <path
     d="M770 9720h306v-26H770z"
     id="path36" />
  <path
     class="BoundingBox"
     fill="none"
     d="M1227 9694h307v28h-307z"
     id="path38" />
  <path
     d="M1227 9720h306v-26h-306z"
     id="path40" />
  <path
     class="BoundingBox"
     fill="none"
     d="M1684 9694h307v28h-307z"
     id="path42" />
  <path
     d="M1684 9720h306v-26h-306z"
     id="path44" />
  <path
     class="BoundingBox"
     fill="none"
     d="M2142 9694h306v28h-306z"
     id="path46" />
  <path
     d="M2142 9720h305v-26h-305z"
     id="path48" />
  <path
     class="BoundingBox"
     fill="none"
     d="M2599 9694h307v28h-307z"
     id="path50" />
  <path
     d="M2599 9720h306v-26h-306z"
     id="path52" />
  <path
     class="BoundingBox"
     fill="none"
     d="M3064 9694h307v28h-307z"
     id="path54" />
  <path
     d="M3064 9720h306v-26h-306z"
     id="path56" />
  <path
     class="BoundingBox"
     fill="none"
     d="M3522 9694h306v28h-306z"
     id="path58" />
  <path
     d="M3522 9720h305v-26h-305z"
     id="path60" />
  <path
     class="BoundingBox"
     fill="none"
     d="M3979 9694h307v28h-307z"
     id="path62" />
  <path
     d="M3979 9720h306v-26h-306z"
     id="path64" />
  <path
     class="BoundingBox"
     fill="none"
     d="M4436 9694h298v28h-298z"
     id="path66" />
  <path
     d="M4436 9720h297v-26h-297z"
     id="path68" />
  <path
     class="BoundingBox"
     fill="none"
     d="M4885 9694h315v28h-315z"
     id="path70" />
  <path
     d="M4885 9720h314v-26h-314z"
     id="path72" />
  <path
     class="BoundingBox"
     fill="none"
     d="M5350 9694h307v28h-307z"
     id="path74" />
  <path
     d="M5350 9720h306v-26h-306z"
     id="path76" />
  <path
     class="BoundingBox"
     fill="none"
     d="M5808 9694h306v28h-306z"
     id="path78" />
  <path
     d="M5808 9720h305v-26h-305z"
     id="path80" />
  <path
     class="BoundingBox"
     fill="none"
     d="M6265 9694h308v28h-308z"
     id="path82" />
  <path
     d="M6265 9720h306v-26h-306z"
     id="path84" />
  <path
     class="BoundingBox"
     fill="none"
     d="M6722 9694h307v28h-307z"
     id="path86" />
  <path
     d="M6722 9720h306v-26h-306z"
     id="path88" />
  <path
     class="BoundingBox"
     fill="none"
     d="M7179 9694h308v28h-308z"
     id="path90" />
  <path
     d="M7179 9720h306v-26h-306z"
     id="path92" />
  <path
     class="BoundingBox"
     fill="none"
     d="M7636 9694h307v28h-307z"
     id="path94" />
  <path
     d="M7636 9720h306v-26h-306z"
     id="path96" />
  <path
     class="BoundingBox"
     fill="none"
     d="M8094 9694h306v28h-306z"
     id="path98" />
  <path
     d="M8094 9720h305v-26h-305z"
     id="path100" />
  <path
     class="BoundingBox"
     fill="none"
     d="M8551 9694h307v28h-307z"
     id="path102" />
  <path
     d="M8551 9720h306v-26h-306z"
     id="path104" />
  <path
     class="BoundingBox"
     fill="none"
     d="M9008 9694h307v28h-307z"
     id="path106" />
  <path
     d="M9008 9720h306v-26h-306z"
     id="path108" />
  <path
     class="BoundingBox"
     fill="none"
     d="M9465 9694h307v28h-307z"
     id="path110" />
  <path
     d="M9465 9720h306v-26h-306z"
     id="path112" />
  <path
     class="BoundingBox"
     fill="none"
     d="M9922 9694h307v28h-307z"
     id="path114" />
  <path
     d="M9922 9720h306v-26h-306z"
     id="path116" />
  <path
     class="BoundingBox"
     fill="none"
     d="M10380 9694h306v28h-306z"
     id="path118" />
  <path
     d="M10380 9720h305v-26h-305z"
     id="path120" />
  <path
     class="BoundingBox"
     fill="none"
     d="M10837 9694h307v28h-307z"
     id="path122" />
  <path
     d="M10837 9720h306v-26h-306z"
     id="path124" />
  <path
     class="BoundingBox"
     fill="none"
     d="M677 8796h54v3152h-54z"
     id="path126" />
  <path
     d="M702 8796h-25v3151h52V8796z"
     id="path128" />
  <path
     class="BoundingBox"
     fill="none"
     d="M550 8618h307v358H550z"
     id="path130" />
  <path
     d="M703 8619l-153 356 18-8 25-9 34-17h59l17-8 17 8h59l26 9 51 25z"
     id="path132" />
  <path
     class="BoundingBox"
     fill="none"
     d="M6553 10914h2667v356H6553zM9246 10914h677v279h-677zM3564 15062h2320v339H3564zM5884 15138h1211v212H5884z"
     id="path136" />
  <path
     class="BoundingBox"
     fill="none"
     d="M7087 15071h1482v356H7087zM694 16061h10873v53H694z"
     id="path138" />
  <path
     d="M11566 16086v-25H694v52h10872z"
     id="path140" />
  <path
     class="BoundingBox"
     fill="none"
     d="M11387 15933h358v299h-358z"
     id="path142" />
  <path
     d="M11744 16086l-357-152 26 51v42l8 17v76l-8 17v42l-26 52z"
     id="path144" />
  <path
     class="BoundingBox"
     fill="none"
     d="M9838 15655h1380v381H9838zM881 13183h542v305H881zM9084 13826h1806v44H9084z"
     id="path146" />
  <path
     d="M10889 13826H9101l9 9-26 25 17 9h1788z"
     id="path148" />
  <path
     class="BoundingBox"
     fill="none"
     d="M1227 13826h7893v2508H1227z"
     id="path150" />
  <path
     d="M9119 13826l-711 17-1016 76-644 84-313 51-296 59-306 60-576 136-271 76-271 85-262 76-254 93-246 85-237 93-228 102-220 93-220 102-204 110-203 101-186 110-186 102-178 110-322 220-288 220-135 110-119 110 26 26 118-110 136-110 135-102 305-220 339-220 186-110 186-102 195-102 423-203 220-101 237-102 229-93 762-254 271-85 279-76 280-69 288-67 297-60 305-59 313-51 313-42 322-34 339-34 677-51 356-8h355z"
     id="path152" />
  <path
     class="BoundingBox"
     fill="none"
     d="M770 13826h307v35H770z"
     id="path154" />
  <path
     d="M770 13860h306v-34H770z"
     id="path156" />
  <path
     class="BoundingBox"
     fill="none"
     d="M1227 13826h307v35h-307z"
     id="path158" />
  <path
     d="M1227 13860h306v-34h-306z"
     id="path160" />
  <path
     class="BoundingBox"
     fill="none"
     d="M1684 13826h307v35h-307z"
     id="path162" />
  <path
     d="M1684 13860h306v-34h-306z"
     id="path164" />
  <path
     class="BoundingBox"
     fill="none"
     d="M2142 13826h306v35h-306z"
     id="path166" />
  <path
     d="M2142 13860h305v-34h-305z"
     id="path168" />
  <path
     class="BoundingBox"
     fill="none"
     d="M2599 13826h307v35h-307z"
     id="path170" />
  <path
     d="M2599 13860h306v-34h-306z"
     id="path172" />
  <path
     class="BoundingBox"
     fill="none"
     d="M3064 13826h307v35h-307z"
     id="path174" />
  <path
     d="M3064 13860h306v-34h-306z"
     id="path176" />
  <path
     class="BoundingBox"
     fill="none"
     d="M3522 13826h306v35h-306z"
     id="path178" />
  <path
     d="M3522 13860h305v-34h-305z"
     id="path180" />
  <path
     class="BoundingBox"
     fill="none"
     d="M3979 13826h307v35h-307z"
     id="path182" />
  <path
     d="M3979 13860h306v-34h-306z"
     id="path184" />
  <path
     class="BoundingBox"
     fill="none"
     d="M4436 13826h298v35h-298z"
     id="path186" />
  <path
     d="M4436 13860h297v-34h-297z"
     id="path188" />
  <path
     class="BoundingBox"
     fill="none"
     d="M4885 13826h315v35h-315z"
     id="path190" />
  <path
     d="M4885 13860h314v-34h-314z"
     id="path192" />
  <path
     class="BoundingBox"
     fill="none"
     d="M5350 13826h307v35h-307z"
     id="path194" />
  <path
     d="M5350 13860h306v-34h-306z"
     id="path196" />
  <path
     class="BoundingBox"
     fill="none"
     d="M5808 13826h306v35h-306z"
     id="path198" />
  <path
     d="M5808 13860h305v-34h-305z"
     id="path200" />
  <path
     class="BoundingBox"
     fill="none"
     d="M6265 13826h308v35h-308z"
     id="path202" />
  <path
     d="M6265 13860h306v-34h-306z"
     id="path204" />
  <path
     class="BoundingBox"
     fill="none"
     d="M6722 13826h307v35h-307z"
     id="path206" />
  <path
     d="M6722 13860h306v-34h-306z"
     id="path208" />
  <path
     class="BoundingBox"
     fill="none"
     d="M7179 13826h308v35h-308z"
     id="path210" />
  <path
     d="M7179 13860h306v-34h-306z"
     id="path212" />
  <path
     class="BoundingBox"
     fill="none"
     d="M7636 13826h307v35h-307z"
     id="path214" />
  <path
     d="M7636 13860h306v-34h-306z"
     id="path216" />
  <path
     class="BoundingBox"
     fill="none"
     d="M8094 13826h306v35h-306z"
     id="path218" />
  <path
     d="M8094 13860h305v-34h-305z"
     id="path220" />
  <path
     class="BoundingBox"
     fill="none"
     d="M8551 13826h307v35h-307z"
     id="path222" />
  <path
     d="M8551 13860h306v-34h-306z"
     id="path224" />
  <path
     class="BoundingBox"
     fill="none"
     d="M9008 13826h307v35h-307z"
     id="path226" />
  <path
     d="M9008 13860h306v-34h-306z"
     id="path228" />
  <path
     class="BoundingBox"
     fill="none"
     d="M9465 13826h307v35h-307z"
     id="path230" />
  <path
     d="M9465 13860h306v-34h-306z"
     id="path232" />
  <path
     class="BoundingBox"
     fill="none"
     d="M9922 13826h307v35h-307z"
     id="path234" />
  <path
     d="M9922 13860h306v-34h-306z"
     id="path236" />
  <path
     class="BoundingBox"
     fill="none"
     d="M10380 13826h306v35h-306z"
     id="path238" />
  <path
     d="M10380 13860h305v-34h-305z"
     id="path240" />
  <path
     class="BoundingBox"
     fill="none"
     d="M10837 13826h307v35h-307z"
     id="path242" />
  <path
     d="M10837 13860h306v-34h-306z"
     id="path244" />
  <path
     class="BoundingBox"
     fill="none"
     d="M677 12936h54v3144h-54z"
     id="path246" />
  <path
     d="M702 12937h-25v3142h52v-3142z"
     id="path248" />
  <path
     class="BoundingBox"
     fill="none"
     d="M550 12759h307v349H550z"
     id="path250" />
  <path
     d="M703 12759l-153 348h18l25-9 34-16h17l25-9h77l17 9h16l26 8 34 17h17z"
     id="path252" />
  <path
     class="BoundingBox"
     fill="none"
     d="M6739 6646h1482v364H6739zM694 7789h10873v54H694z"
     id="path256" />
  <path
     d="M11566 7815v-26H694v52h10872z"
     id="path258" />
  <path
     class="BoundingBox"
     fill="none"
     d="M11387 7662h358v298h-358z"
     id="path260" />
  <path
     d="M11744 7814l-357-152 9 17 8 25 9 17v34l8 25v68l-8 17v42l-26 52z"
     id="path262" />
  <path
     class="BoundingBox"
     fill="none"
     d="M881 4911h542v305H881z"
     id="path264" />
  <path
     class="BoundingBox"
     fill="none"
     d="M1219 5207h1619v2846H1219z"
     id="path266" />
  <path
     d="M2837 5207l-119 25-118 51-127 76-119 110-118 127-127 161-110 178-119 186-101 212-102 220-102 237-93 245-76 246-76 254-60 254-51 255 34 8 50-255 61-254 76-254 169-491 102-228 101-220 110-212 111-186 110-178 118-153 119-127 118-101 110-76 119-51 110-17z"
     id="path268" />
  <path
     class="BoundingBox"
     fill="none"
     d="M2861 5215h1721v654H2861z"
     id="path270" />
  <path
     d="M4581 5826h-110l-102-17-152-51-42-26-51-25-43-17-50-25-43-26-50-25-43-25-51-34-42-26-51-35-51-25-50-34-153-76-60-25-51-26-118-34-68-17-59-17-204-25h-76v42h144l136 17 177 51 51 25 51 17 59 26 205 101 50 35 43 26 50 34 43 25 51 25 42 26 51 34 51 25 42 25 51 17 50 26 153 51 51 8 59 8h51l59 9z"
     id="path272" />
  <path
     class="BoundingBox"
     fill="none"
     d="M4580 5358h1721v511H4580z"
     id="path274" />
  <path
     d="M6300 5359l-51 8h-59l-153 27-51 17-50 8-204 68-42 25-51 17-42 26-51 17-51 25-42 17-51 25-51 17-50 26-51 17-52 25-59 17-51 17-59 17-60 8-59 17-59 9-136 17h-135v42l68-9h67l204-25 59-17 59-8 59-17 51-17 61-17 50-26 102-33 59-26 43-17 101-51 42-16 51-26 51-17 42-17 51-25 43-17 101-34 42-8 51-17 153-26h110z"
     id="path276" />
  <path
     class="BoundingBox"
     fill="none"
     d="M6315 5359h1721v341H6315z"
     id="path278" />
  <path
     d="M8035 5656h-160l-204-35-42-8-51-9-42-16-51-9-51-17-42-8-51-17-42-9-102-34-42-8-51-17-59-8-51-17-51-9-52-17-237-34-67-8-60-9h-67l-68-8h-76v42h144l67 9h60l67 8 178 26 51 17 60 8 51 8 51 17 51 9 50 17 43 17 51 8 50 17 43 9 50 17 43 16 51 9 50 18 43 8 152 26 42 8 60 9 51 8h50l60 9h50z"
     id="path280" />
  <g
     id="g286">
    <path
       class="BoundingBox"
       fill="none"
       d="M8050 5503h1747v197H8050z"
       id="path282" />
    <path
       d="M9796 5503h-50l-60 8h-152l-51 9h-51l-101 17h-51l-102 17-42 8-102 17h-42l-204 34h-51l-59 8-51 9h-59l-119 17h-59l-59 8h-280v44h77l67-9h136l59-8h119l118-18 51-9h59l102-17 60-8 42-9 51-8h51l51-9 42-8 51-8h51l42-9 102-17h50l51-8h51l51-9h211z"
       id="path284" />
  </g>
  <g
     id="g292">
    <path
       class="BoundingBox"
       fill="none"
       d="M9770 5520h1645v70H9770z"
       id="path288" />
    <path
       d="M11414 5545h-306l-93-8h-356l-93-9h-195l-101-8h-500v43h703l93 9h178l93 8h178l93 9h306z"
       id="path290" />
  </g>
  <g
     id="g298">
    <path
       class="BoundingBox"
       fill="none"
       d="M770 5562h307v28H770z"
       id="path294" />
    <path
       d="M770 5589h306v-27H770z"
       id="path296" />
  </g>
  <g
     id="g304">
    <path
       class="BoundingBox"
       fill="none"
       d="M1227 5562h307v28h-307z"
       id="path300" />
    <path
       d="M1227 5589h306v-27h-306z"
       id="path302" />
  </g>
  <g
     id="g310">
    <path
       class="BoundingBox"
       fill="none"
       d="M1684 5562h307v28h-307z"
       id="path306" />
    <path
       d="M1684 5589h306v-27h-306z"
       id="path308" />
  </g>
  <g
     id="g316">
    <path
       class="BoundingBox"
       fill="none"
       d="M2142 5562h306v28h-306z"
       id="path312" />
    <path
       d="M2142 5589h305v-27h-305z"
       id="path314" />
  </g>
  <g
     id="g322">
    <path
       class="BoundingBox"
       fill="none"
       d="M2599 5562h307v28h-307z"
       id="path318" />
    <path
       d="M2599 5589h306v-27h-306z"
       id="path320" />
  </g>
  <g
     id="g328">
    <path
       class="BoundingBox"
       fill="none"
       d="M3064 5562h307v28h-307z"
       id="path324" />
    <path
       d="M3064 5589h306v-27h-306z"
       id="path326" />
  </g>
  <g
     id="g334">
    <path
       class="BoundingBox"
       fill="none"
       d="M3522 5562h306v28h-306z"
       id="path330" />
    <path
       d="M3522 5589h305v-27h-305z"
       id="path332" />
  </g>
  <g
     id="g340">
    <path
       class="BoundingBox"
       fill="none"
       d="M3979 5562h307v28h-307z"
       id="path336" />
    <path
       d="M3979 5589h306v-27h-306z"
       id="path338" />
  </g>
  <g
     id="g346">
    <path
       class="BoundingBox"
       fill="none"
       d="M4436 5562h298v28h-298z"
       id="path342" />
    <path
       d="M4436 5589h297v-27h-297z"
       id="path344" />
  </g>
  <g
     id="g352">
    <path
       class="BoundingBox"
       fill="none"
       d="M4885 5562h315v28h-315z"
       id="path348" />
    <path
       d="M4885 5589h314v-27h-314z"
       id="path350" />
  </g>
  <g
     id="g358">
    <path
       class="BoundingBox"
       fill="none"
       d="M5350 5562h307v28h-307z"
       id="path354" />
    <path
       d="M5350 5589h306v-27h-306z"
       id="path356" />
  </g>
  <g
     id="g364">
    <path
       class="BoundingBox"
       fill="none"
       d="M5808 5562h306v28h-306z"
       id="path360" />
    <path
       d="M5808 5589h305v-27h-305z"
       id="path362" />
  </g>
  <g
     id="g370">
    <path
       class="BoundingBox"
       fill="none"
       d="M6265 5562h308v28h-308z"
       id="path366" />
    <path
       d="M6265 5589h306v-27h-306z"
       id="path368" />
  </g>
  <g
     id="g376">
    <path
       class="BoundingBox"
       fill="none"
       d="M6722 5562h307v28h-307z"
       id="path372" />
    <path
       d="M6722 5589h306v-27h-306z"
       id="path374" />
  </g>
  <g
     id="g382">
    <path
       class="BoundingBox"
       fill="none"
       d="M7179 5562h308v28h-308z"
       id="path378" />
    <path
       d="M7179 5589h306v-27h-306z"
       id="path380" />
  </g>
  <g
     id="g388">
    <path
       class="BoundingBox"
       fill="none"
       d="M7636 5562h307v28h-307z"
       id="path384" />
    <path
       d="M7636 5589h306v-27h-306z"
       id="path386" />
  </g>
  <g
     id="g394">
    <path
       class="BoundingBox"
       fill="none"
       d="M8094 5562h306v28h-306z"
       id="path390" />
    <path
       d="M8094 5589h305v-27h-305z"
       id="path392" />
  </g>
  <g
     id="g400">
    <path
       class="BoundingBox"
       fill="none"
       d="M8551 5562h307v28h-307z"
       id="path396" />
    <path
       d="M8551 5589h306v-27h-306z"
       id="path398" />
  </g>
  <g
     id="g406">
    <path
       class="BoundingBox"
       fill="none"
       d="M9008 5562h307v28h-307z"
       id="path402" />
    <path
       d="M9008 5589h306v-27h-306z"
       id="path404" />
  </g>
  <g
     id="g412">
    <path
       class="BoundingBox"
       fill="none"
       d="M9465 5562h307v28h-307z"
       id="path408" />
    <path
       d="M9465 5589h306v-27h-306z"
       id="path410" />
  </g>
  <g
     id="g418">
    <path
       class="BoundingBox"
       fill="none"
       d="M9922 5562h307v28h-307z"
       id="path414" />
    <path
       d="M9922 5589h306v-27h-306z"
       id="path416" />
  </g>
  <g
     id="g424">
    <path
       class="BoundingBox"
       fill="none"
       d="M10380 5562h306v28h-306z"
       id="path420" />
    <path
       d="M10380 5589h305v-27h-305z"
       id="path422" />
  </g>
  <g
     id="g430">
    <path
       class="BoundingBox"
       fill="none"
       d="M10837 5562h307v28h-307z"
       id="path426" />
    <path
       d="M10837 5589h306v-27h-306z"
       id="path428" />
  </g>
  <g
     id="g436">
    <path
       class="BoundingBox"
       fill="none"
       d="M677 4665h54v3143h-54z"
       id="path432" />
    <path
       d="M702 4665h-25v3142h52V4665z"
       id="path434" />
  </g>
  <g
     id="g442">
    <path
       class="BoundingBox"
       fill="none"
       d="M550 4487h307v357H550z"
       id="path438" />
    <path
       d="M703 4487l-153 356 18-8 25-8 34-17h17l25-9h77l17 9h16l26 8 51 25z"
       id="path440" />
  </g>
  <g
     id="g448">
    <path
       class="BoundingBox"
       fill="none"
       d="M0 0h12532v35H0z"
       id="path444" />
    <path
       d="M33 17L16 34h12515V0H16L0 17 16 0H0v17z"
       id="path446" />
  </g>
  <g
     id="g454">
    <path
       class="BoundingBox"
       fill="none"
       d="M0 16h35v16783H0z"
       id="path450" />
    <path
       d="M16 16765l18 16V16H0v16765l16 17-16-17v17h16z"
       id="path452" />
  </g>
  <g
     id="g460">
    <path
       class="BoundingBox"
       fill="none"
       d="M16 16764h12533v35H16z"
       id="path456" />
    <path
       d="M12514 16781l17-17H16v34h12515l17-17-17 17h17v-17z"
       id="path458" />
  </g>
  <g
     id="g466">
    <path
       class="BoundingBox"
       fill="none"
       d="M12513 0h36v16782h-36z"
       id="path462" />
    <path
       d="M12531 33l-18-17v16765h35V16l-17-16 17 16V0h-17z"
       id="path464" />
  </g>
  <g
     id="g470">
    <path
       class="BoundingBox"
       fill="none"
       d="M144 16425h931v262H144z"
       id="path468" />
  </g>
  <g
     id="g480">
    <path
       class="BoundingBox"
       fill="none"
       d="M710 3666h10865v52H710z"
       id="path476" />
    <path
       d="M11574 3692v-26H711v51h10863z"
       id="path478" />
  </g>
  <g
     id="g486">
    <path
       class="BoundingBox"
       fill="none"
       d="M11396 3539h357v298h-357z"
       id="path482" />
    <path
       d="M11752 3691l-356-152 25 50 9 26v17l8 17v76l-8 17v17l-9 25-25 52z"
       id="path484" />
  </g>
  <g
     id="g490">
    <path
       class="BoundingBox"
       fill="none"
       d="M897 787h542v305H897z"
       id="path488" />
  </g>
  <g
     id="g496">
    <path
       class="BoundingBox"
       fill="none"
       d="M1235 1083h1620v2847H1235z"
       id="path492" />
    <path
       d="M2854 1083l-127 26-119 42-118 85-119 110-127 127-118 161-119 169-110 195-110 211-102 221-186 475-85 254-67 254-61 254-50 254 34 8 51-254 60-254 76-254 76-245 93-246 93-229 102-221 110-211 110-187 119-177 118-153 119-127 110-101 118-77 119-50 110-17z"
       id="path494" />
  </g>
  <g
     id="g502">
    <path
       class="BoundingBox"
       fill="none"
       d="M2877 1092h1713v654H2877z"
       id="path498" />
    <path
       d="M4589 1702h-50l-60-8h-50l-51-17-51-9-51-16-42-26-51-17-42-26-51-17-51-26-85-50-50-34-43-26-50-33-51-26-43-25-59-34-42-26-59-25-102-51-60-25-60-17-59-25-59-9-59-17-136-17-76-8h-68v34h68l76 8 59 9 68 8 237 68 52 25 59 26 153 76 42 25 51 34 51 25 42 26 51 34 51 25 42 25 51 26 42 35 51 17 42 25 51 25 152 51 51 9 59 8h60l50 9z"
       id="path500" />
  </g>
  <g
     id="g508">
    <path
       class="BoundingBox"
       fill="none"
       d="M4588 1083h1713v663H4588z"
       id="path504" />
    <path
       d="M6300 1083l-51 9h-59l-51 8-59 17-51 9-51 17-51 25-42 17-51 25-51 17-51 34-84 51-51 25-51 34-42 26-51 25-51 34-42 25-152 76-60 26-52 25-237 69-67 8-60 9-76 8h-68v43l68-9 76-8 136-17 59-17 59-9 60-25 59-18 119-51 204-101 50-34 43-26 51-33 84-51 51-26 51-34 42-16 51-26 42-25 51-17 51-26 42-8 51-17 102-17 59-8h51z"
       id="path506" />
  </g>
  <g
     id="g514">
    <path
       class="BoundingBox"
       fill="none"
       d="M6332 1092h1713v654H6332z"
       id="path510" />
    <path
       d="M8044 1702h-59l-51-8h-51l-51-17-51-9-50-16-43-26-51-17-50-26-43-17-50-26-43-25-51-25-42-34-51-26-42-33-102-51-50-34-204-102-60-25-59-17-59-25-60-9-67-17-60-8-67-9-77-8h-67v34h67l77 8 59 9 68 8 237 68 305 152 51 34 43 25 50 26 43 34 101 50 43 26 50 35 43 17 101 50 153 51 51 9 59 8h51l59 9z"
       id="path512" />
  </g>
  <g
     id="g520">
    <path
       class="BoundingBox"
       fill="none"
       d="M8034 981h1713v756H8034z"
       id="path516" />
    <path
       d="M9746 982l-60 8h-50l-60 9-203 67-51 26-42 34-51 25-51 34-42 25-51 34-42 34-51 34-42 34-102 68-51 26-101 68-102 50-60 26-51 25-59 26-119 33-67 9-60 17h-144v42l68-8h76l68-9 59-17 68-17 59-17 179-76 51-25 51-34 59-25 42-34 60-34 42-34 51-35 42-34 51-34 42-33 51-26 51-34 42-25 42-34 51-17 51-25 42-26 102-34 51-8 51-17h110z"
       id="path518" />
  </g>
  <g
     id="g526">
    <path
       class="BoundingBox"
       fill="none"
       d="M9744 981h1713v756H9744z"
       id="path522" />
    <path
       d="M11456 1694h-110l-51-9-102-33-42-17-51-17-101-51-43-26-42-33-51-34-42-26-102-68-42-34-102-68-42-34-51-25-51-34-59-34-51-25-178-77-60-17-67-16-60-9-67-17h-77l-67-8v42h67l77 8 59 9 68 8 59 17 59 26 59 17 51 25 60 25 51 26 51 34 51 25 152 102 43 25 50 43 51 26 43 34 50 34 43 33 101 51 43 34 50 26 51 16 51 26 51 8 51 17 59 9 51 8h59z"
       id="path524" />
  </g>
  <g
     id="g532">
    <path
       class="BoundingBox"
       fill="none"
       d="M787 1430h307v36H787z"
       id="path528" />
    <path
       d="M787 1465h306v-35H787z"
       id="path530" />
  </g>
  <g
     id="g538">
    <path
       class="BoundingBox"
       fill="none"
       d="M1244 1430h307v36h-307z"
       id="path534" />
    <path
       d="M1244 1465h306v-35h-306z"
       id="path536" />
  </g>
  <g
     id="g544">
    <path
       class="BoundingBox"
       fill="none"
       d="M1701 1430h307v36h-307z"
       id="path540" />
    <path
       d="M1701 1465h306v-35h-306z"
       id="path542" />
  </g>
  <g
     id="g550">
    <path
       class="BoundingBox"
       fill="none"
       d="M2159 1430h306v36h-306z"
       id="path546" />
    <path
       d="M2159 1465h305v-35h-305z"
       id="path548" />
  </g>
  <g
     id="g556">
    <path
       class="BoundingBox"
       fill="none"
       d="M2616 1430h307v36h-307z"
       id="path552" />
    <path
       d="M2616 1465h306v-35h-306z"
       id="path554" />
  </g>
  <g
     id="g562">
    <path
       class="BoundingBox"
       fill="none"
       d="M3073 1430h307v36h-307z"
       id="path558" />
    <path
       d="M3073 1465h306v-35h-306z"
       id="path560" />
  </g>
  <g
     id="g568">
    <path
       class="BoundingBox"
       fill="none"
       d="M3530 1430h307v36h-307z"
       id="path564" />
    <path
       d="M3530 1465h306v-35h-306z"
       id="path566" />
  </g>
  <g
     id="g574">
    <path
       class="BoundingBox"
       fill="none"
       d="M3987 1430h307v36h-307z"
       id="path570" />
    <path
       d="M3987 1465h306v-35h-306z"
       id="path572" />
  </g>
  <g
     id="g580">
    <path
       class="BoundingBox"
       fill="none"
       d="M4445 1430h306v36h-306z"
       id="path576" />
    <path
       d="M4445 1465h305v-35h-305z"
       id="path578" />
  </g>
  <g
     id="g586">
    <path
       class="BoundingBox"
       fill="none"
       d="M4902 1430h307v36h-307z"
       id="path582" />
    <path
       d="M4902 1465h306v-35h-306z"
       id="path584" />
  </g>
  <g
     id="g592">
    <path
       class="BoundingBox"
       fill="none"
       d="M5359 1430h307v36h-307z"
       id="path588" />
    <path
       d="M5359 1465h306v-35h-306z"
       id="path590" />
  </g>
  <g
     id="g598">
    <path
       class="BoundingBox"
       fill="none"
       d="M5816 1430h307v36h-307z"
       id="path594" />
    <path
       d="M5816 1465h306v-35h-306z"
       id="path596" />
  </g>
  <g
     id="g604">
    <path
       class="BoundingBox"
       fill="none"
       d="M6273 1430h307v36h-307z"
       id="path600" />
    <path
       d="M6273 1465h306v-35h-306z"
       id="path602" />
  </g>
  <g
     id="g610">
    <path
       class="BoundingBox"
       fill="none"
       d="M6731 1430h306v36h-306z"
       id="path606" />
    <path
       d="M6731 1465h305v-35h-305z"
       id="path608" />
  </g>
  <g
     id="g616">
    <path
       class="BoundingBox"
       fill="none"
       d="M7188 1430h307v36h-307z"
       id="path612" />
    <path
       d="M7188 1465h306v-35h-306z"
       id="path614" />
  </g>
  <g
     id="g622">
    <path
       class="BoundingBox"
       fill="none"
       d="M7645 1430h307v36h-307z"
       id="path618" />
    <path
       d="M7645 1465h306v-35h-306z"
       id="path620" />
  </g>
  <g
     id="g628">
    <path
       class="BoundingBox"
       fill="none"
       d="M8102 1430h307v36h-307z"
       id="path624" />
    <path
       d="M8102 1465h306v-35h-306z"
       id="path626" />
  </g>
  <g
     id="g634">
    <path
       class="BoundingBox"
       fill="none"
       d="M8559 1430h316v36h-316z"
       id="path630" />
    <path
       d="M8559 1465h315v-35h-315z"
       id="path632" />
  </g>
  <g
     id="g640">
    <path
       class="BoundingBox"
       fill="none"
       d="M9025 1430h307v36h-307z"
       id="path636" />
    <path
       d="M9025 1465h306v-35h-306z"
       id="path638" />
  </g>
  <g
     id="g646">
    <path
       class="BoundingBox"
       fill="none"
       d="M9482 1430h308v36h-308z"
       id="path642" />
    <path
       d="M9482 1465h306v-35h-306z"
       id="path644" />
  </g>
  <g
     id="g652">
    <path
       class="BoundingBox"
       fill="none"
       d="M9939 1430h307v36h-307z"
       id="path648" />
    <path
       d="M9939 1465h306v-35h-306z"
       id="path650" />
  </g>
  <g
     id="g658">
    <path
       class="BoundingBox"
       fill="none"
       d="M10397 1430h306v36h-306z"
       id="path654" />
    <path
       d="M10397 1465h305v-35h-305z"
       id="path656" />
  </g>
  <g
     id="g664">
    <path
       class="BoundingBox"
       fill="none"
       d="M10854 1430h307v36h-307z"
       id="path660" />
    <path
       d="M10854 1465h306v-35h-306z"
       id="path662" />
  </g>
  <g
     id="g670">
    <path
       class="BoundingBox"
       fill="none"
       d="M694 541h53v3144h-53z"
       id="path666" />
    <path
       d="M720 541h-26v3143h52V541z"
       id="path668" />
  </g>
  <g
     id="g676">
    <path
       class="BoundingBox"
       fill="none"
       d="M567 364h308v349H567z"
       id="path672" />
    <path
       d="M719 364L567 712h17l34-17 25-9h17l17-8h76l25 8h17l34 17 26 9h18z"
       id="path674" />
  </g>
  <text
     xml:space="preserve"
     style="font-style:normal;font-variant:normal;font-weight:normal;font-stretch:normal;font-size:564.44439697px;line-height:1.25;font-family:sans-serif;-inkscape-font-specification:'sans-serif, Normal';font-variant-ligatures:normal;font-variant-caps:normal;font-variant-numeric:normal;font-feature-settings:normal;text-align:start;letter-spacing:0px;word-spacing:0px;writing-mode:lr-tb;text-anchor:start;fill:#000000;fill-opacity:1;stroke:none;stroke-width:746.70697021"
     x="809.83221"
     y="1290.3342"
     id="text688"><tspan
       sodipodi:role="line"
       id="tspan686"
       x="809.83221"
       y="1290.3342"
       style="font-style:normal;font-variant:normal;font-weight:normal;font-stretch:normal;font-size:423.33325195px;font-family:sans-serif;-inkscape-font-specification:'sans-serif, Normal';font-variant-ligatures:normal;font-variant-caps:normal;font-variant-numeric:normal;font-feature-settings:normal;text-align:start;writing-mode:lr-tb;text-anchor:start;stroke-width:746.70697021">PV</tspan></text>
  <text
     xml:space="preserve"
     style="font-style:normal;font-variant:normal;font-weight:normal;font-stretch:normal;font-size:564.44433594px;line-height:1.25;font-family:sans-serif;-inkscape-font-specification:'sans-serif, Normal';font-variant-ligatures:normal;font-variant-caps:normal;font-variant-numeric:normal;font-feature-settings:normal;text-align:start;letter-spacing:0px;word-spacing:0px;writing-mode:lr-tb;text-anchor:start;fill:#000000;fill-opacity:1;stroke:none;stroke-width:746.70690918"
     x="765.44348"
     y="5477.2866"
     id="text688-4"><tspan
       sodipodi:role="line"
       id="tspan686-4"
       x="765.44348"
       y="5477.2866"
       style="font-style:normal;font-variant:normal;font-weight:normal;font-stretch:normal;font-size:423.33322144px;font-family:sans-serif;-inkscape-font-specification:'sans-serif, Normal';font-variant-ligatures:normal;font-variant-caps:normal;font-variant-numeric:normal;font-feature-settings:normal;text-align:start;writing-mode:lr-tb;text-anchor:start;stroke-width:746.70690918">PV</tspan></text>
  <text
     xml:space="preserve"
     style="font-style:normal;font-variant:normal;font-weight:normal;font-stretch:normal;font-size:564.44433594px;line-height:1.25;font-family:sans-serif;-inkscape-font-specification:'sans-serif, Normal';font-variant-ligatures:normal;font-variant-caps:normal;font-variant-numeric:normal;font-feature-settings:normal;text-align:start;letter-spacing:0px;word-spacing:0px;writing-mode:lr-tb;text-anchor:start;fill:#000000;fill-opacity:1;stroke:none;stroke-width:746.70690918"
     x="790.61023"
     y="9579.4609"
     id="text688-47"><tspan
       sodipodi:role="line"
       id="tspan686-6"
       x="790.61023"
       y="9579.4609"
       style="font-style:normal;font-variant:normal;font-weight:normal;font-stretch:normal;font-size:423.33322144px;font-family:sans-serif;-inkscape-font-specification:'sans-serif, Normal';font-variant-ligatures:normal;font-variant-caps:normal;font-variant-numeric:normal;font-feature-settings:normal;text-align:start;writing-mode:lr-tb;text-anchor:start;stroke-width:746.70690918">PV</tspan></text>
  <text
     xml:space="preserve"
     style="font-style:normal;font-variant:normal;font-weight:normal;font-stretch:normal;font-size:564.44433594px;line-height:1.25;font-family:sans-serif;-inkscape-font-specification:'sans-serif, Normal';font-variant-ligatures:normal;font-variant-caps:normal;font-variant-numeric:normal;font-feature-settings:normal;text-align:start;letter-spacing:0px;word-spacing:0px;writing-mode:lr-tb;text-anchor:start;fill:#000000;fill-opacity:1;stroke:none;stroke-width:746.70690918"
     x="765.44348"
     y="13606.134"
     id="text688-3"><tspan
       sodipodi:role="line"
       id="tspan686-1"
       x="765.44348"
       y="13606.134"
       style="font-style:normal;font-variant:normal;font-weight:normal;font-stretch:normal;font-size:423.33322144px;font-family:sans-serif;-inkscape-font-specification:'sans-serif, Normal';font-variant-ligatures:normal;font-variant-caps:normal;font-variant-numeric:normal;font-feature-settings:normal;text-align:start;writing-mode:lr-tb;text-anchor:start;stroke-width:746.70690918">PV</tspan></text>
  <text
     xml:space="preserve"
     style="font-style:normal;font-variant:normal;font-weight:normal;font-stretch:normal;font-size:564.44433594px;line-height:1.25;font-family:sans-serif;-inkscape-font-specification:'sans-serif, Normal';font-variant-ligatures:normal;font-variant-caps:normal;font-variant-numeric:normal;font-feature-settings:normal;text-align:start;letter-spacing:0px;word-spacing:0px;writing-mode:lr-tb;text-anchor:start;fill:#000000;fill-opacity:1;stroke:none;stroke-width:746.70690918"
     x="10781.794"
     y="15795.638"
     id="text688-7"><tspan
       sodipodi:role="line"
       id="tspan686-5"
       x="10781.794"
       y="15795.638"
       style="font-style:normal;font-variant:normal;font-weight:normal;font-stretch:normal;font-size:423.33322144px;font-family:sans-serif;-inkscape-font-specification:'sans-serif, Normal';font-variant-ligatures:normal;font-variant-caps:normal;font-variant-numeric:normal;font-feature-settings:normal;text-align:start;writing-mode:lr-tb;text-anchor:start;stroke-width:746.70690918">Tiempo</tspan></text>
  <text
     xml:space="preserve"
     style="font-style:normal;font-variant:normal;font-weight:normal;font-stretch:normal;font-size:564.44439697px;line-height:1.25;font-family:sans-serif;-inkscape-font-specification:'sans-serif, Normal';font-variant-ligatures:normal;font-variant-caps:normal;font-variant-numeric:normal;font-feature-settings:normal;text-align:start;letter-spacing:0px;word-spacing:0px;writing-mode:lr-tb;text-anchor:start;fill:#000000;fill-opacity:1;stroke:none;stroke-width:746.70697021"
     x="3649.1731"
     y="15263.832"
     id="text734"><tspan
       sodipodi:role="line"
       id="tspan732"
       x="3649.1731"
       y="15263.832"
       style="font-style:normal;font-variant:normal;font-weight:normal;font-stretch:normal;font-size:423.33325195px;font-family:sans-serif;-inkscape-font-specification:'sans-serif, Normal';font-variant-ligatures:normal;font-variant-caps:normal;font-variant-numeric:normal;font-feature-settings:normal;text-align:start;writing-mode:lr-tb;text-anchor:start;stroke-width:746.70697021">Estable, sobre amortiguado</tspan></text>
  <text
     xml:space="preserve"
     style="font-style:normal;font-variant:normal;font-weight:normal;font-stretch:normal;font-size:564.44433594px;line-height:1.25;font-family:sans-serif;-inkscape-font-specification:'sans-serif, Normal';font-variant-ligatures:normal;font-variant-caps:normal;font-variant-numeric:normal;font-feature-settings:normal;text-align:start;letter-spacing:0px;word-spacing:0px;writing-mode:lr-tb;text-anchor:start;fill:#000000;fill-opacity:1;stroke:none;stroke-width:746.70690918"
     x="3053.8364"
     y="10875.779"
     id="text734-5"><tspan
       sodipodi:role="line"
       x="3053.8364"
       y="10875.779"
       style="font-style:normal;font-variant:normal;font-weight:normal;font-stretch:normal;font-size:423.33322144px;font-family:sans-serif;-inkscape-font-specification:'sans-serif, Normal';font-variant-ligatures:normal;font-variant-caps:normal;font-variant-numeric:normal;font-feature-settings:normal;text-align:start;writing-mode:lr-tb;text-anchor:start;stroke-width:746.70690918"
       id="tspan770">Estable, con amortiguamiento crítico</tspan></text>
  <text
     xml:space="preserve"
     style="font-style:normal;font-variant:normal;font-weight:normal;font-stretch:normal;font-size:564.44433594px;line-height:1.25;font-family:sans-serif;-inkscape-font-specification:'sans-serif, Normal';font-variant-ligatures:normal;font-variant-caps:normal;font-variant-numeric:normal;font-feature-settings:normal;text-align:start;letter-spacing:0px;word-spacing:0px;writing-mode:lr-tb;text-anchor:start;fill:#000000;fill-opacity:1;stroke:none;stroke-width:746.70690918"
     x="3330.6704"
     y="6748.4385"
     id="text734-4"><tspan
       sodipodi:role="line"
       id="tspan732-1"
       x="3330.6704"
       y="6748.4385"
       style="font-style:normal;font-variant:normal;font-weight:normal;font-stretch:normal;font-size:423.33322144px;font-family:sans-serif;-inkscape-font-specification:'sans-serif, Normal';font-variant-ligatures:normal;font-variant-caps:normal;font-variant-numeric:normal;font-feature-settings:normal;text-align:start;writing-mode:lr-tb;text-anchor:start;stroke-width:746.70690918">Estable, sub amortiguado</tspan></text>
  <text
     xml:space="preserve"
     style="font-style:normal;font-variant:normal;font-weight:normal;font-stretch:normal;font-size:564.44433594px;line-height:1.25;font-family:sans-serif;-inkscape-font-specification:'sans-serif, Normal';font-variant-ligatures:normal;font-variant-caps:normal;font-variant-numeric:normal;font-feature-settings:normal;text-align:start;letter-spacing:0px;word-spacing:0px;writing-mode:lr-tb;text-anchor:start;fill:#000000;fill-opacity:1;stroke:none;stroke-width:746.70690918"
     x="5318.8403"
     y="2621.0979"
     id="text734-8"><tspan
       sodipodi:role="line"
       id="tspan732-5"
       x="5318.8403"
       y="2621.0979"
       style="font-style:normal;font-variant:normal;font-weight:normal;font-stretch:normal;font-size:423.33322144px;font-family:sans-serif;-inkscape-font-specification:'sans-serif, Normal';font-variant-ligatures:normal;font-variant-caps:normal;font-variant-numeric:normal;font-feature-settings:normal;text-align:start;writing-mode:lr-tb;text-anchor:start;stroke-width:746.70690918">Inestable</tspan></text>
</svg>
