<svg xmlns="http://www.w3.org/2000/svg" version="1.2" width="474.369" height="224.466" viewBox="0 0 12551 5939" preserveAspectRatio="xMidYMid" fill-rule="evenodd" stroke-width="28.222" stroke-linejoin="round">
  <g class="Graphic">
    <path class="BoundingBox" fill="none" d="M6733 1864h271v203h-271z"/>
  </g>
  <g class="Graphic">
    <path class="BoundingBox" fill="none" d="M7097 1864h1643v203H7097z"/>
  </g>
  <g class="Graphic">
    <path class="BoundingBox" fill="none" d="M8748 1864h34v25h-34z"/>
  </g>
  <g class="Graphic">
    <path class="BoundingBox" fill="none" d="M8748 1915h203v152h-203z"/>
  </g>
  <g class="Graphic">
    <path class="BoundingBox" fill="none" d="M179 5615h940v262H179z"/>
  </g>
  <g class="com.sun.star.drawing.PolyPolygonShape">
    <path class="BoundingBox" fill="none" d="M1313 4522h163v36h-163z"/>
    <path d="M1313 4540v17h162v-35h-162z"/>
  </g>
  <g class="com.sun.star.drawing.PolyPolygonShape">
    <path class="BoundingBox" fill="none" d="M1313 3845h163v36h-163z"/>
    <path d="M1313 3862v18h162v-35h-162z"/>
  </g>
  <g class="com.sun.star.drawing.PolyPolygonShape">
    <path class="BoundingBox" fill="none" d="M1313 2414h163v36h-163z"/>
    <path d="M1313 2432v17h162v-35h-162z"/>
  </g>
  <g class="com.sun.star.drawing.PolyPolygonShape">
    <path class="BoundingBox" fill="none" d="M1313 3150h163v28h-163z"/>
    <path d="M1313 3167v10h162v-27h-162z"/>
  </g>
  <g class="Graphic">
    <path class="BoundingBox" fill="none" d="M1051 3015h169v254h-169z"/>
  </g>
  <g class="Graphic">
    <path class="BoundingBox" fill="none" d="M662 3625h542v246H662z"/>
  </g>
  <g class="Graphic">
    <path class="BoundingBox" fill="none" d="M662 4387h542v254H662z"/>
  </g>
  <g class="com.sun.star.drawing.PolyPolygonShape">
    <path class="BoundingBox" fill="none" d="M1576 1677h307v28h-307z"/>
    <path d="M1576 1704h306v-27h-306z"/>
  </g>
  <g class="com.sun.star.drawing.PolyPolygonShape">
    <path class="BoundingBox" fill="none" d="M2033 1677h315v28h-315z"/>
    <path d="M2033 1704h314v-27h-314z"/>
  </g>
  <g class="com.sun.star.drawing.PolyPolygonShape">
    <path class="BoundingBox" fill="none" d="M2499 1677h308v28h-308z"/>
    <path d="M2499 1704h306v-27h-306z"/>
  </g>
  <g class="com.sun.star.drawing.PolyPolygonShape">
    <path class="BoundingBox" fill="none" d="M2956 1677h308v28h-308z"/>
    <path d="M2956 1704h306v-27h-306z"/>
  </g>
  <g class="com.sun.star.drawing.PolyPolygonShape">
    <path class="BoundingBox" fill="none" d="M3413 1677h307v28h-307z"/>
    <path d="M3413 1704h306v-27h-306z"/>
  </g>
  <g class="com.sun.star.drawing.PolyPolygonShape">
    <path class="BoundingBox" fill="none" d="M3870 1677h307v28h-307z"/>
    <path d="M3870 1704h306v-27h-306z"/>
  </g>
  <g class="com.sun.star.drawing.PolyPolygonShape">
    <path class="BoundingBox" fill="none" d="M4328 1677h306v28h-306z"/>
    <path d="M4328 1704h305v-27h-305z"/>
  </g>
  <g class="com.sun.star.drawing.PolyPolygonShape">
    <path class="BoundingBox" fill="none" d="M4785 1677h308v28h-308z"/>
    <path d="M4785 1704h306v-27h-306z"/>
  </g>
  <g class="com.sun.star.drawing.PolyPolygonShape">
    <path class="BoundingBox" fill="none" d="M5242 1677h307v28h-307z"/>
    <path d="M5242 1704h306v-27h-306z"/>
  </g>
  <g class="com.sun.star.drawing.PolyPolygonShape">
    <path class="BoundingBox" fill="none" d="M5699 1677h308v28h-308z"/>
    <path d="M5699 1704h306v-27h-306z"/>
  </g>
  <g class="com.sun.star.drawing.PolyPolygonShape">
    <path class="BoundingBox" fill="none" d="M6156 1677h307v28h-307z"/>
    <path d="M6156 1704h306v-27h-306z"/>
  </g>
  <g class="com.sun.star.drawing.PolyPolygonShape">
    <path class="BoundingBox" fill="none" d="M6614 1677h306v28h-306z"/>
    <path d="M6614 1704h305v-27h-305z"/>
  </g>
  <g class="com.sun.star.drawing.PolyPolygonShape">
    <path class="BoundingBox" fill="none" d="M7071 1677h307v28h-307z"/>
    <path d="M7071 1704h306v-27h-306z"/>
  </g>
  <g class="com.sun.star.drawing.PolyPolygonShape">
    <path class="BoundingBox" fill="none" d="M7528 1677h307v28h-307z"/>
    <path d="M7528 1704h306v-27h-306z"/>
  </g>
  <g class="com.sun.star.drawing.PolyPolygonShape">
    <path class="BoundingBox" fill="none" d="M7985 1677h307v28h-307z"/>
    <path d="M7985 1704h306v-27h-306z"/>
  </g>
  <g class="com.sun.star.drawing.PolyPolygonShape">
    <path class="BoundingBox" fill="none" d="M8442 1677h307v28h-307z"/>
    <path d="M8442 1704h306v-27h-306z"/>
  </g>
  <g class="com.sun.star.drawing.PolyPolygonShape">
    <path class="BoundingBox" fill="none" d="M8900 1677h306v28h-306z"/>
    <path d="M8900 1704h305v-27h-305z"/>
  </g>
  <g class="com.sun.star.drawing.PolyPolygonShape">
    <path class="BoundingBox" fill="none" d="M9357 1677h307v28h-307z"/>
    <path d="M9357 1704h306v-27h-306z"/>
  </g>
  <g class="com.sun.star.drawing.PolyPolygonShape">
    <path class="BoundingBox" fill="none" d="M9814 1677h308v28h-308z"/>
    <path d="M9814 1704h306v-27h-306z"/>
  </g>
  <g class="com.sun.star.drawing.PolyPolygonShape">
    <path class="BoundingBox" fill="none" d="M10271 1677h307v28h-307z"/>
    <path d="M10271 1704h306v-27h-306z"/>
  </g>
  <g class="com.sun.star.drawing.PolyPolygonShape">
    <path class="BoundingBox" fill="none" d="M10728 1677h308v28h-308z"/>
    <path d="M10728 1704h306v-27h-306z"/>
  </g>
  <g class="com.sun.star.drawing.PolyPolygonShape">
    <path class="BoundingBox" fill="none" d="M11186 1677h306v28h-306z"/>
    <path d="M11186 1704h305v-27h-305z"/>
  </g>
  <g class="com.sun.star.drawing.PolyPolygonShape">
    <path class="BoundingBox" fill="none" d="M11643 1677h316v28h-316z"/>
    <path d="M11643 1704h314v-27h-314z"/>
  </g>
  <g class="Graphic">
    <path class="BoundingBox" fill="none" d="M662 2279h542v254H662z"/>
  </g>
  <g class="com.sun.star.drawing.PolyPolygonShape">
    <path class="BoundingBox" fill="none" d="M1009 5242h10873v52H1009z"/>
    <path d="M11881 5267v-25H1009v51h10872z"/>
  </g>
  <g class="com.sun.star.drawing.PolyPolygonShape">
    <path class="BoundingBox" fill="none" d="M11702 5115h358v306h-358z"/>
    <path d="M12059 5267l-357-152 8 17 9 25v17l8 17v17l9 25v69l-9 25v17l-8 17v17l-9 26-8 16z"/>
  </g>
  <g class="Graphic">
    <path class="BoundingBox" fill="none" d="M10153 4836h1389v389h-1389z"/>
  </g>
  <g class="Graphic">
    <path class="BoundingBox" fill="none" d="M239 933h940v356H239z"/>
  </g>
  <g class="com.sun.star.drawing.PolyPolygonShape">
    <path class="BoundingBox" fill="none" d="M3278 2193h7164v451H3278z"/>
    <path d="M10441 2211h-101l-119-9h-711l-212-8H7444l-863 25-297 9-288 8-279 17-271 8-271 26-262 17-246 17-228 25-222 34-203 25-194 34-170 44-144 42-127 42-101 51 8 25 102-50 118-43 153-42 169-42 186-35 203-26 222-34 228-25 246-17 262-17 271-25 271-9 279-17 288-8 297-9 575-16h576l288-9h542l254 9h906l186 8h533z"/>
  </g>
  <g class="com.sun.star.drawing.PolyPolygonShape">
    <path class="BoundingBox" fill="none" d="M1584 2617h1704v2991H1584z"/>
    <path d="M3279 2617l-204 102-84 67-93 68-86 68-85 76-152 169-68 85-135 187-119 203-152 305-51 110-85 220-42 102-102 330-33 102-34 110-102 406-25 93-17 85-26 93 26 9 25-93 17-94 25-93 26-101 25-93 51-204 68-220 34-101 67-220 43-102 84-220 51-102 51-110 102-203 59-102 59-93 68-93 59-94 229-254 76-68 86-76 84-68 93-59 94-51 101-51z"/>
  </g>
  <g class="com.sun.star.drawing.PolyPolygonShape">
    <path class="BoundingBox" fill="none" d="M1 0h12533v37H1z"/>
    <path d="M35 19L18 36h12515V1H18L1 19 18 1H1v18z"/>
  </g>
  <g class="com.sun.star.drawing.PolyPolygonShape">
    <path class="BoundingBox" fill="none" d="M0 18h37v5921H0z"/>
    <path d="M19 5903l17 17V18H1v5902l18 17-18-17v17h18z"/>
  </g>
  <g class="com.sun.star.drawing.PolyPolygonShape">
    <path class="BoundingBox" fill="none" d="M18 5902h12533v36H18z"/>
    <path d="M12516 5919l17-17H18v35h12515l17-18-17 18h17v-18z"/>
  </g>
  <g class="com.sun.star.drawing.PolyPolygonShape">
    <path class="BoundingBox" fill="none" d="M12515 1h36v5920h-36z"/>
    <path d="M12533 35l-18-17v5902h35V18l-17-17 17 17V1h-17z"/>
  </g>
  <g class="com.sun.star.drawing.PolyPolygonShape">
    <path class="BoundingBox" fill="none" d="M1576 4539h307v36h-307z"/>
    <path d="M1576 4574h306v-35h-306z"/>
  </g>
  <g class="com.sun.star.drawing.PolyPolygonShape">
    <path class="BoundingBox" fill="none" d="M2033 4539h315v36h-315z"/>
    <path d="M2033 4574h314v-35h-314z"/>
  </g>
  <g class="com.sun.star.drawing.PolyPolygonShape">
    <path class="BoundingBox" fill="none" d="M2499 4539h308v36h-308z"/>
    <path d="M2499 4574h306v-35h-306z"/>
  </g>
  <g class="com.sun.star.drawing.PolyPolygonShape">
    <path class="BoundingBox" fill="none" d="M2956 4539h308v36h-308z"/>
    <path d="M2956 4574h306v-35h-306z"/>
  </g>
  <g class="com.sun.star.drawing.PolyPolygonShape">
    <path class="BoundingBox" fill="none" d="M3413 4539h307v36h-307z"/>
    <path d="M3413 4574h306v-35h-306z"/>
  </g>
  <g class="com.sun.star.drawing.PolyPolygonShape">
    <path class="BoundingBox" fill="none" d="M3870 4539h307v36h-307z"/>
    <path d="M3870 4574h306v-35h-306z"/>
  </g>
  <g class="com.sun.star.drawing.PolyPolygonShape">
    <path class="BoundingBox" fill="none" d="M4328 4539h306v36h-306z"/>
    <path d="M4328 4574h305v-35h-305z"/>
  </g>
  <g class="com.sun.star.drawing.PolyPolygonShape">
    <path class="BoundingBox" fill="none" d="M4785 4539h308v36h-308z"/>
    <path d="M4785 4574h306v-35h-306z"/>
  </g>
  <g class="com.sun.star.drawing.PolyPolygonShape">
    <path class="BoundingBox" fill="none" d="M5242 4539h307v36h-307z"/>
    <path d="M5242 4574h306v-35h-306z"/>
  </g>
  <g class="com.sun.star.drawing.PolyPolygonShape">
    <path class="BoundingBox" fill="none" d="M5699 4539h308v36h-308z"/>
    <path d="M5699 4574h306v-35h-306z"/>
  </g>
  <g class="com.sun.star.drawing.PolyPolygonShape">
    <path class="BoundingBox" fill="none" d="M6156 4539h307v36h-307z"/>
    <path d="M6156 4574h306v-35h-306z"/>
  </g>
  <g class="com.sun.star.drawing.PolyPolygonShape">
    <path class="BoundingBox" fill="none" d="M6614 4539h306v36h-306z"/>
    <path d="M6614 4574h305v-35h-305z"/>
  </g>
  <g class="com.sun.star.drawing.PolyPolygonShape">
    <path class="BoundingBox" fill="none" d="M7071 4539h307v36h-307z"/>
    <path d="M7071 4574h306v-35h-306z"/>
  </g>
  <g class="com.sun.star.drawing.PolyPolygonShape">
    <path class="BoundingBox" fill="none" d="M7528 4539h307v36h-307z"/>
    <path d="M7528 4574h306v-35h-306z"/>
  </g>
  <g class="com.sun.star.drawing.PolyPolygonShape">
    <path class="BoundingBox" fill="none" d="M7985 4539h307v36h-307z"/>
    <path d="M7985 4574h306v-35h-306z"/>
  </g>
  <g class="com.sun.star.drawing.PolyPolygonShape">
    <path class="BoundingBox" fill="none" d="M8442 4539h307v36h-307z"/>
    <path d="M8442 4574h306v-35h-306z"/>
  </g>
  <g class="com.sun.star.drawing.PolyPolygonShape">
    <path class="BoundingBox" fill="none" d="M8900 4539h306v36h-306z"/>
    <path d="M8900 4574h305v-35h-305z"/>
  </g>
  <g class="com.sun.star.drawing.PolyPolygonShape">
    <path class="BoundingBox" fill="none" d="M9357 4539h307v36h-307z"/>
    <path d="M9357 4574h306v-35h-306z"/>
  </g>
  <g class="com.sun.star.drawing.PolyPolygonShape">
    <path class="BoundingBox" fill="none" d="M9814 4539h308v36h-308z"/>
    <path d="M9814 4574h306v-35h-306z"/>
  </g>
  <g class="com.sun.star.drawing.PolyPolygonShape">
    <path class="BoundingBox" fill="none" d="M10271 4539h307v36h-307z"/>
    <path d="M10271 4574h306v-35h-306z"/>
  </g>
  <g class="com.sun.star.drawing.PolyPolygonShape">
    <path class="BoundingBox" fill="none" d="M10728 4539h308v36h-308z"/>
    <path d="M10728 4574h306v-35h-306z"/>
  </g>
  <g class="com.sun.star.drawing.PolyPolygonShape">
    <path class="BoundingBox" fill="none" d="M11186 4539h306v36h-306z"/>
    <path d="M11186 4574h305v-35h-305z"/>
  </g>
  <g class="com.sun.star.drawing.PolyPolygonShape">
    <path class="BoundingBox" fill="none" d="M11643 4539h316v36h-316z"/>
    <path d="M11643 4574h314v-35h-314z"/>
  </g>
  <g class="Graphic">
    <path class="BoundingBox" fill="none" d="M8595 3430h1168v203H8595z"/>
  </g>
  <g class="Graphic">
    <path class="BoundingBox" fill="none" d="M9764 3481h567v203h-567z"/>
  </g>
  <g class="Graphic">
    <path class="BoundingBox" fill="none" d="M10331 3430h720v203h-720z"/>
  </g>
  <g class="com.sun.star.drawing.PolyPolygonShape">
    <path class="BoundingBox" fill="none" d="M1483 1093h53v4362h-53z"/>
    <path d="M1509 1093h-26v4361h52V1093z"/>
  </g>
  <g class="com.sun.star.drawing.PolyPolygonShape">
    <path class="BoundingBox" fill="none" d="M1356 915h307v358h-307z"/>
    <path d="M1508 915l-152 357 17-9 25-8 17-9h17l17-8h118l17 8h27l51 26z"/>
  </g>
  <g class="com.sun.star.drawing.PolyPolygonShape">
    <path class="BoundingBox" fill="none" d="M1313 1660h163v36h-163z"/>
    <path d="M1313 1678v17h162v-35h-162z"/>
  </g>
  <g class="com.sun.star.drawing.PolyPolygonShape">
    <path class="BoundingBox" fill="none" d="M9238 1676h188v173h-188z"/>
    <path d="M9425 1848l-93-171-94 171z"/>
  </g>
  <g class="com.sun.star.drawing.PolyPolygonShape">
    <path class="BoundingBox" fill="none" d="M9313 1830h37v247h-37z"/>
    <path d="M9332 2076h17v-246h-35v246z"/>
  </g>
  <g class="com.sun.star.drawing.PolyPolygonShape">
    <path class="BoundingBox" fill="none" d="M9238 2058h188v172h-188z"/>
    <path d="M9425 2058l-93 171-94-171z"/>
  </g>
  <g class="com.sun.star.drawing.PolyPolygonShape">
    <path class="BoundingBox" fill="none" d="M11075 1694h206v248h-206z"/>
    <path d="M11178 1694l102 247h-9l-17-9h-8l-17-8h-26l-16-9h-26l-8 9h-26l-17 8h-8l-18 9h-9z"/>
  </g>
  <g class="com.sun.star.drawing.PolyPolygonShape">
    <path class="BoundingBox" fill="none" d="M11160 1821h36v2601h-36z"/>
    <path d="M11178 4421h17V1821h-35v2600z"/>
  </g>
  <g class="com.sun.star.drawing.PolyPolygonShape">
    <path class="BoundingBox" fill="none" d="M11075 4293h206v248h-206z"/>
    <path d="M11178 4540l102-247-9 9h-17l-8 8h-17l-17 10h-76l-9-10h-17l-8-8h-18l-9-9z"/>
  </g>
  <text y="606.214" x="4294.544" style="line-height:1.25;-inkscape-font-specification:'sans-serif, Normal';font-variant-ligatures:normal;font-variant-caps:normal;font-variant-numeric:normal;font-feature-settings:normal;text-align:start" font-weight="400" font-size="564.444" font-family="sans-serif" letter-spacing="0" word-spacing="0" stroke-width="746.707">
    <tspan style="-inkscape-font-specification:'sans-serif, Normal';text-align:start;font-variant-ligatures:normal;font-variant-caps:normal;font-variant-numeric:normal;font-feature-settings:normal" y="606.214" x="4294.544" font-size="493.889" writing-mode="lr">Control proporcional</tspan>
  </text>
  <text y="2006.267" x="6654.184" style="line-height:1.25;-inkscape-font-specification:'sans-serif, Normal';font-variant-ligatures:normal;font-variant-caps:normal;font-variant-numeric:normal;font-feature-settings:normal;text-align:start" font-weight="400" font-size="564.444" font-family="sans-serif" letter-spacing="0" word-spacing="0" stroke-width="746.707">
    <tspan style="-inkscape-font-specification:'sans-serif, Normal';font-variant-ligatures:normal;font-variant-caps:normal;font-variant-numeric:normal;font-feature-settings:normal;text-align:start" y="2006.267" x="6654.184" font-size="282.222">Error estacionario</tspan>
  </text>
  <text y="3527.264" x="8287.908" style="line-height:1.25;-inkscape-font-specification:'sans-serif, Normal';font-variant-ligatures:normal;font-variant-caps:normal;font-variant-numeric:normal;font-feature-settings:normal;text-align:start" font-weight="400" font-size="564.445" font-family="sans-serif" letter-spacing="0" word-spacing="0" stroke-width="746.707">
    <tspan style="-inkscape-font-specification:'sans-serif, Normal';font-variant-ligatures:normal;font-variant-caps:normal;font-variant-numeric:normal;font-feature-settings:normal;text-align:start" y="3527.264" x="8287.908" font-size="282.222">Banda proporcional</tspan>
  </text>
  <text y="1188.258" x="629.237" style="line-height:1.25;-inkscape-font-specification:'sans-serif, Normal';font-variant-ligatures:normal;font-variant-caps:normal;font-variant-numeric:normal;font-feature-settings:normal;text-align:start" font-weight="400" font-size="564.444" font-family="sans-serif" letter-spacing="0" word-spacing="0" stroke-width="746.707">
    <tspan style="-inkscape-font-specification:'sans-serif, Normal';font-variant-ligatures:normal;font-variant-caps:normal;font-variant-numeric:normal;font-feature-settings:normal;text-align:start" y="1188.258" x="629.237" font-size="423.333">Tª</tspan>
  </text>
  <text y="5687.092" x="10451.321" style="line-height:1.25;-inkscape-font-specification:'sans-serif, Normal';font-variant-ligatures:normal;font-variant-caps:normal;font-variant-numeric:normal;font-feature-settings:normal;text-align:start" font-weight="400" font-size="564.445" font-family="sans-serif" letter-spacing="0" word-spacing="0" stroke-width="746.707">
    <tspan style="-inkscape-font-specification:'sans-serif, Normal';font-variant-ligatures:normal;font-variant-caps:normal;font-variant-numeric:normal;font-feature-settings:normal;text-align:start" y="5687.092" x="10451.321" font-size="423.333">Tiempo</tspan>
  </text>
</svg>
